<svg width="146" height="40" viewBox="0 0 146 40" fill="none" xmlns="http://www.w3.org/2000/svg">
<path fill-rule="evenodd" clip-rule="evenodd" d="M129.324 29.9802C129.528 29.9802 129.693 29.8151 129.693 29.6114V10.3688C129.693 10.1651 129.528 10 129.324 10H125.902C125.699 10 125.534 10.1651 125.534 10.3688V29.6114C125.534 29.8151 125.699 29.9802 125.902 29.9802H129.324ZM67.3957 23.4892C66.8842 25.0602 64.7756 30.2232 59.1556 30.2232C53.0789 30.2232 50 25.9302 50 20.5571C50 15.1031 53.0789 10.837 59.1556 10.837C65.2695 10.837 67.0485 16.2226 67.4363 17.7869C67.4911 18.0079 67.3208 18.2081 67.093 18.2081H63.5215C63.3401 18.2081 63.1843 18.0775 63.1373 17.9024C62.907 17.0435 62.0124 14.6711 59.1556 14.6711C56.0227 14.6711 54.3212 16.7501 54.3212 20.5571C54.3212 24.3641 56.0227 26.4162 59.1556 26.4162C61.8974 26.4162 62.8868 24.1374 63.1525 23.3248C63.2063 23.1601 63.3571 23.0411 63.5303 23.0411H67.0588C67.2977 23.0411 67.4697 23.262 67.3957 23.4892ZM82.9275 22.9331C82.9275 27.1452 80.4698 30.2232 75.8786 30.2232C71.2873 30.2232 68.8296 27.1722 68.8296 22.9331C68.8296 18.6941 71.3413 15.6161 75.8786 15.6161C80.4158 15.6161 82.9275 18.6941 82.9275 22.9331ZM75.8785 26.5782C74.1771 26.5782 73.0698 25.4981 73.0698 22.9331C73.0698 20.3951 74.1501 19.2611 75.8785 19.2611C77.607 19.2611 78.6873 20.3681 78.6873 22.9331C78.6873 25.4981 77.607 26.5782 75.8785 26.5782ZM97.5222 16.2279V24.3371C97.5222 27.3342 95.6857 30.2232 91.0674 30.2232H91.0406L90.9027 30.2223C86.3856 30.1654 84.5856 27.3042 84.5856 24.3371V16.2279C84.5856 16.0242 84.7508 15.8591 84.9545 15.8591H88.376C88.5797 15.8591 88.7448 16.0242 88.7448 16.2279V23.7161C88.7448 25.3362 89.42 26.3082 91.0674 26.3082C92.6879 26.3082 93.3631 25.3362 93.3631 23.7161V16.2279C93.3631 16.0242 93.5282 15.8591 93.7319 15.8591H97.1534C97.3571 15.8591 97.5222 16.0242 97.5222 16.2279ZM103.83 29.9802C104.033 29.9802 104.198 29.8151 104.198 29.6114V22.1501C104.198 20.4491 105.279 19.3961 106.764 19.3961C108.412 19.3961 109.141 20.3681 109.141 21.9881V29.6114C109.141 29.8151 109.306 29.9802 109.51 29.9802H112.931C113.135 29.9802 113.3 29.8151 113.3 29.6114V20.6921C113.3 17.5601 111.193 15.6161 108.06 15.6161C106.224 15.6161 104.982 16.2911 104.198 17.2091H104.09L103.834 16.1418C103.794 15.976 103.646 15.8591 103.476 15.8591H100.408C100.204 15.8591 100.039 16.0242 100.039 16.2279V29.6114C100.039 29.8151 100.204 29.9802 100.408 29.9802H103.83ZM121.877 30.2232H120.289C117.021 30.2232 115.562 28.2792 115.562 25.7141V19.3961V13.5459C115.562 13.3786 115.675 13.2322 115.837 13.1894L119.258 12.2828C119.492 12.2208 119.722 12.3972 119.722 12.6393V15.859H122.729C122.932 15.859 123.098 16.0242 123.098 16.2279V19.0272C123.098 19.2309 122.932 19.3961 122.729 19.3961H119.722V24.7151C119.722 26.0381 120.289 26.6051 121.531 26.6051H122.668C122.912 26.6051 123.088 26.8369 123.024 27.0716L122.233 29.952C122.189 30.1122 122.043 30.2232 121.877 30.2232ZM138.067 37.7582C138.014 37.9034 137.876 38 137.721 38H134.169C133.916 38 133.738 37.7506 133.82 37.5111L136.369 30.1055C136.397 30.0245 136.396 29.9363 136.366 29.8561L131.241 16.1678C131.232 16.1422 131.227 16.115 131.227 16.0877C131.227 15.9614 131.329 15.8591 131.455 15.8591H135.226C135.386 15.8591 135.527 15.9619 135.577 16.1139L138.613 25.457L141.618 16.115C141.667 15.9625 141.809 15.8591 141.969 15.8591H145.771C145.897 15.8591 146 15.9617 146 16.0883C146 16.1153 145.995 16.142 145.986 16.1673L138.067 37.7582Z" fill="white"/>
<mask id="mask0_33872_183428" style="mask-type:alpha" maskUnits="userSpaceOnUse" x="0" y="0" width="40" height="41">
<path fill-rule="evenodd" clip-rule="evenodd" d="M37.2434 2.51565C34.1918 0.598367 26.44 0.120262 22.7638 0.00103866C21.6633 -0.0346511 20.771 0.854035 20.771 1.95512V17.5535C20.771 18.5435 21.5729 19.3465 22.5629 19.3478L37.8255 19.3678C39.0894 19.3694 40.0906 18.31 39.9909 17.0501C39.6429 12.6523 38.7427 3.45765 37.2434 2.51565ZM2.91352 2.51565C5.96516 0.598372 13.7169 0.120267 17.3932 0.00104374C18.4937 -0.034646 19.386 0.854041 19.386 1.95512V37.7052C19.386 38.9295 18.3882 39.9129 17.1652 39.8572C13.3381 39.6829 5.64785 39.1214 2.91352 37.3778C-0.786161 35.0186 -1.15189 5.06987 2.91352 2.51565ZM22.7638 39.9994C26.4401 39.8802 34.1918 39.4021 37.2434 37.4848C38.7428 36.5428 39.6429 27.3482 39.9909 22.9504C40.0906 21.6904 39.0894 20.6311 37.8255 20.6327L22.563 20.6527C21.5729 20.654 20.771 21.4569 20.771 22.447V38.0454C20.771 39.1464 21.6633 40.0351 22.7638 39.9994Z" fill="white"/>
</mask>
<g mask="url(#mask0_33872_183428)">
<path fill-rule="evenodd" clip-rule="evenodd" d="M31.661 0.798023C28.4731 0.264077 24.9185 0.0709158 22.7638 0.00103866C21.6633 -0.0346511 20.771 0.854035 20.771 1.95512V17.5535C20.771 18.5435 21.5729 19.3465 22.5629 19.3478L37.8255 19.3678C39.0894 19.3694 40.0906 18.31 39.9909 17.0501C39.6429 12.6523 38.7427 3.45765 37.2434 2.51565C36.919 2.31184 36.5415 2.1243 36.1215 1.95172C36.0859 2.29863 36.0098 2.64858 35.88 2.99205C35.0062 5.30495 31.0544 9.35662 31.0544 9.35662H35.7538C35.974 9.35662 36.1526 9.53514 36.1526 9.75536V12.8662C36.1526 13.0864 35.974 13.2649 35.7538 13.2649H24.7679C24.5477 13.2649 24.3691 13.0864 24.3691 12.8662V10.3498C24.3691 10.0098 24.5125 9.68709 24.7642 9.45854C25.7951 8.5225 28.5805 5.96379 29.9348 4.42844C30.2688 4.04982 30.5629 3.72879 30.8181 3.45008C31.8475 2.32617 32.2464 1.89067 32.0912 1.14316C32.0649 1.01629 31.923 0.90101 31.661 0.798023ZM24.22 27.104C24.22 26.8838 24.3985 26.7052 24.6187 26.7052H35.7743C35.9945 26.7052 36.1731 26.8838 36.1731 27.104V30.4738C36.1731 30.5946 36.1182 30.709 36.024 30.7847L33.5743 32.752C33.3355 32.9438 33.3889 33.3304 33.6633 33.4666C34.4213 33.8429 35.6607 34.5695 36.1731 35.5023C36.5557 36.1989 36.6874 37.0755 36.7237 37.7758C36.9091 37.6827 37.0828 37.5858 37.2434 37.4848C38.7428 36.5428 39.6429 27.3482 39.9909 22.9504C40.0906 21.6904 39.0894 20.6311 37.8255 20.6327L22.563 20.6527C21.5729 20.654 20.771 21.4569 20.771 22.447V38.0454C20.771 39.1464 21.6633 40.0351 22.7638 39.9994C25.051 39.9253 28.9157 39.7122 32.2446 39.1C32.2292 38.3779 32.0617 37.3505 31.3145 36.7598C30.3544 36.0008 27.8646 36.4188 26.7944 36.6449C26.5393 36.6988 26.2935 36.5055 26.2935 36.2448V33.7935C26.2935 33.677 26.3444 33.5664 26.4328 33.4906L29.7321 30.6649H24.6187C24.3985 30.6649 24.22 30.4864 24.22 30.2662V27.104ZM6.17607 12.4704C5.71371 12.5666 5.38232 12.9741 5.38232 13.4463V15.8944C5.38232 16.5266 5.9633 16.9992 6.58226 16.8704L9.10822 16.3447V28.2119C9.10822 28.7624 9.55452 29.2087 10.1051 29.2087H12.8178C13.3683 29.2087 13.8146 28.7624 13.8146 28.2119V14.5604L13.8146 14.5545V12.1064C13.8146 11.4742 13.2337 11.0017 12.6147 11.1305L6.17607 12.4704ZM17.3932 0.00104374C13.7169 0.120267 5.96516 0.598372 2.91352 2.51565C-1.15189 5.06987 -0.786161 35.0186 2.91352 37.3778C5.64785 39.1214 13.3381 39.6829 17.1652 39.8572C18.3882 39.9129 19.386 38.9295 19.386 37.7052V1.95512C19.386 0.854041 18.4937 -0.034646 17.3932 0.00104374Z" fill="white"/>
</g>
</svg>
