<?xml version="1.0" encoding="UTF-8" standalone="no"?>
<svg width="69px" height="62px" viewBox="0 0 69 62" version="1.1" xmlns="http://www.w3.org/2000/svg" xmlns:xlink="http://www.w3.org/1999/xlink">
    <!-- Generator: Sketch 3.6.1 (26313) - http://www.bohemiancoding.com/sketch -->
    <title>Group 5</title>
    <desc>Created with Sketch.</desc>
    <defs>
        <linearGradient x1="16.6801331%" y1="100%" x2="91.4639152%" y2="0%" id="linearGradient-1">
            <stop stop-color="#4778C9" offset="0%"></stop>
            <stop stop-color="#57B1FF" offset="100%"></stop>
        </linearGradient>
    </defs>
    <g id="Page-1" stroke="none" stroke-width="1" fill="none" fill-rule="evenodd">
        <g id="Group-5" transform="translate(-2.000000, -2.000000)">
            <g id="Group-4" transform="translate(35.499555, 32.483014) rotate(-3.000000) translate(-35.499555, -32.483014) translate(1.999555, 1.983014)">
                <ellipse id="Oval-160" fill="url(#linearGradient-1)" cx="30.5" cy="30.5" rx="30.5" ry="30.5"></ellipse>
                <ellipse id="Oval-161" fill="#FFFFFF" cx="15.5175439" cy="34.7807018" rx="4.81578947" ry="4.81578947"></ellipse>
                <path d="M2.14035088,48.6929825 L14.9824561,34.7807018 L31.5701754,44.9473684 L48.1578947,18.1929825 L66.3508772,31.0350877" id="Path-237" stroke="#FFFFFF" stroke-width="3"></path>
                <ellipse id="Oval-161-Copy" fill="#FFFFFF" cx="31.5701754" cy="43.3421053" rx="4.81578947" ry="4.81578947"></ellipse>
                <ellipse id="Oval-161-Copy" fill="#FFFFFF" cx="47.622807" cy="18.7280702" rx="4.81578947" ry="4.81578947"></ellipse>
            </g>
            <g id="Group-3" transform="translate(40.000000, 29.000000)">
                <circle id="Oval-157" stroke="#979797" stroke-dasharray="3" fill="#FFFFFF" cx="15.5" cy="15.5" r="15.5"></circle>
                <g id="Group-2" transform="translate(7.000000, 7.000000)" fill="#9CDE9B">
                    <rect id="Rectangle-623" x="7" y="0" width="3" height="17" rx="100"></rect>
                    <rect id="Rectangle-623" transform="translate(8.500000, 8.500000) rotate(-270.000000) translate(-8.500000, -8.500000) " x="7" y="0" width="3" height="17" rx="100"></rect>
                </g>
            </g>
        </g>
    </g>
</svg>